#!OML:ASF H:\ManfredETheater\Project 1\Capture day 1\Session 1\subject.ASF
:FULLY-SPECIFIED
:DEGREES
212
root 0.768762 17.8595 -15.3467 -171.326 -6.39239 -181.84
lowerback 2.97968 -0.289644 -4.26742
upperback -3.7804 -0.651453 1.41215
thorax -5.54448 -0.153538 3.9222
lowerneck -15.5911 -2.05852 -2.8811
upperneck 9.87385 -2.89126 5.13988
head 5.64564 -1.1498 1.82188
rclavicle 9.51682e-015 1.31198e-014
rhumerus -36.999 -8.88416 -82.838
rradius 29.0491
rwrist 8.88811
rhand -18.261 -7.53289
rfingers 7.12502
rthumb 8.01841 -37.3608
lclavicle 9.51682e-015 1.31198e-014
lhumerus -37.8683 7.51048 84.6988
lradius 32.204
lwrist -9.88722
lhand -14.2393 8.12288
lfingers 7.12502
lthumb 11.8984 37.7648
rfemur -17.248 1.37969 21.541
rtibia 33.8305
rfoot -18.4812 -16.299
rtoes -9.70967
lfemur -20.6098 -3.95144 -23.7785
ltibia 38.8279
lfoot -21.5629 -7.29416
ltoes 11.6618
213
root 0.771211 17.8564 -15.3704 -171.239 -6.42037 -181.856
lowerback 2.98439 -0.30878 -4.23647
upperback -3.80024 -0.676395 1.42418
thorax -5.56565 -0.166505 3.91958
lowerneck -15.5717 -2.04185 -2.86826
upperneck 9.89079 -2.86733 5.10613
head 5.64601 -1.13999 1.81151
rclavicle -5.50385e-015 7.15625e-015
rhumerus -37.183 -9.02951 -82.6435
rradius 29.0664
rwrist 8.82962
rhand -18.3053 -7.58352
rfingers 7.12502
rthumb 7.97569 -37.413
lclavicle -5.50385e-015 7.15625e-015
lhumerus -37.7034 7.14273 85.0115
lradius 32.6799
lwrist -9.57445
lhand -14.3615 8.06467
lfingers 7.12502
lthumb 11.7805 37.7134
rfemur -17.2462 1.34407 21.5423
rtibia 33.8281
rfoot -18.5849 -16.299
rtoes -9.79794
lfemur -20.6082 -3.97853 -23.7753
ltibia 38.8156
lfoot -21.6637 -7.28972
ltoes 11.6894
214
root 0.773996 17.853 -15.3937 -171.154 -6.43598 -181.874
lowerback 2.99527 -0.326798 -4.20846
upperback -3.81991 -0.700124 1.4376
thorax -5.5903 -0.178608 3.92008
lowerneck -15.5558 -2.02525 -2.85492
upperneck 9.91351 -2.84222 5.06292
head 5.64859 -1.13011 1.79817
rclavicle 3.85145e-015 -7.55382e-015
rhumerus -37.359 -9.13483 -82.4668
rradius 29.1097
rwrist 8.7776
rhand -18.3348 -7.63564
rfingers 7.12502
rthumb 7.94725 -37.4662
lclavicle 3.85145e-015 -7.55382e-015
lhumerus -37.5447 6.78986 85.3145
lradius 33.1539
lwrist -9.25727
lhand -14.4814 8.01291
lfingers 7.12502
lthumb 11.6649 37.6682
rfemur -17.2454 1.31101 21.5413
rtibia 33.8258
rfoot -18.6914 -16.2851
rtoes -9.90557
lfemur -20.6043 -4.00516 -23.7711
ltibia 38.8015
lfoot -21.772 -7.27967
ltoes 11.7164
215
root 0.777064 17.8493 -15.4165 -171.069 -6.43678 -181.897
lowerback 3.01341 -0.343731 -4.18845
upperback -3.83878 -0.723046 1.44998
thorax -5.61835 -0.189871 3.92409
lowerneck -15.5446 -2.00755 -2.83713
upperneck 9.93966 -2.81503 5.00925
head 5.65271 -1.11966 1.78097
rclavicle -1.15171e-014 -1.43125e-014
rhumerus -37.5254 -9.20421 -82.3088
rradius 29.1749
rwrist 8.72962
rhand -18.3602 -7.68554
rfingers 7.12502
rthumb 7.92266 -37.5171
lclavicle -1.15171e-014 -1.43125e-014
lhumerus -37.3895 6.45059 85.6072
lradius 33.6264
lwrist -8.94069
lhand -14.5908 7.98085
lfingers 7.12502
lthumb 11.5594 37.6421
rfemur -17.2454 1.27959 21.5311
rtibia 33.8245
rfoot -18.8028 -16.2553
rtoes -10.035
lfemur -20.5969 -4.03056 -23.7733
ltibia 38.7847
lfoot -21.886 -7.26178
ltoes 11.7452
216
root 0.780531 17.8454 -15.4389 -170.984 -6.42363 -181.93
lowerback 3.03598 -0.359905 -4.18216
upperback -3.85531 -0.745742 1.46081
thorax -5.64646 -0.200431 3.93427
lowerneck -15.537 -1.9908 -2.8184
upperneck 9.96446 -2.78834 4.95029
head 5.65693 -1.10975 1.76187
rclavicle 2.27857e-014 -3.57812e-015
rhumerus -37.6742 -9.24149 -82.1687
rradius 29.2527
rwrist 8.6766
rhand -18.3839 -7.727
rfingers 7.12502
rthumb 7.89978 -37.5594
lclavicle 2.27857e-014 -3.57812e-015
lhumerus -37.2367 6.11865 85.8913
lradius 34.0991
lwrist -8.62397
lhand -14.688 7.97644
lfingers 7.12502
lthumb 11.4657 37.6429
rfemur -17.2486 1.25541 21.5086
rtibia 33.8257
rfoot -18.9166 -16.2164
rtoes -10.1918
lfemur -20.588 -4.05715 -23.7858
ltibia 38.7649
lfoot -22.002 -7.23212
ltoes 11.7686
217
root 0.784348 17.8413 -15.4609 -170.899 -6.39988 -181.972
lowerback 3.05991 -0.376554 -4.18754
upperback -3.86919 -0.76966 1.46978
thorax -5.67239 -0.211165 3.94918
lowerneck -15.5348 -1.97353 -2.79113
upperneck 9.99073 -2.76072 4.87816
head 5.66218 -1.09989 1.73728
rclavicle 7.33018e-015 2.0276e-014
rhumerus -37.8047 -9.25095 -82.0456
rradius 29.3382
rwrist 8.61703
rhand -18.4126 -7.76002
rfingers 7.12502
rthumb 7.87212 -37.5935
lclavicle 7.33018e-015 2.0276e-014
lhumerus -37.0875 5.79666 86.1663
lradius 34.5716
lwrist -8.3138
lhand -14.7784 7.99386
lfingers 7.12502
lthumb 11.3785 37.6652
rfemur -17.2533 1.23486 21.475
rtibia 33.8293
rfoot -19.0341 -16.1704
rtoes -10.3893
lfemur -20.5774 -4.08665 -23.8083
ltibia 38.7426
lfoot -22.1201 -7.18896
ltoes 11.7816
218
root 0.788437 17.8371 -15.4826 -170.81 -6.36462 -182.022
lowerback 3.08332 -0.393504 -4.20339
upperback -3.87985 -0.794437 1.47635
thorax -5.69451 -0.221997 3.96752
lowerneck -15.547 -1.95526 -2.76457
upperneck 10.0221 -2.73165 4.80681
head 5.6714 -1.08907 1.71312
rclavicle -5.29264e-015 -7.95139e-016
rhumerus -37.9152 -9.23774 -81.9388
rradius 29.4315
rwrist 8.54945
rhand -18.4419 -7.79398
rfingers 7.12502
rthumb 7.84387 -37.6285
lclavicle -5.29264e-015 -7.95139e-016
lhumerus -36.9414 5.48206 86.4324
lradius 35.0487
lwrist -8.0261
lhand -14.8619 8.02559
lfingers 7.12502
lthumb 11.298 37.7013
rfemur -17.2626 1.21472 21.4299
rtibia 33.8349
rfoot -19.1541 -16.1139
rtoes -10.6297
lfemur -20.5684 -4.12216 -23.8418
ltibia 38.7189
lfoot -22.2385 -7.12721
ltoes 11.7874
219
root 0.7929 17.8328 -15.504 -170.719 -6.32054 -182.075
lowerback 3.10485 -0.409732 -4.22214
upperback -3.88981 -0.818369 1.48181
thorax -5.71487 -0.232354 3.98624
lowerneck -15.5507 -1.93852 -2.74351
upperneck 10.046 -2.70421 4.74147
head 5.6771 -1.07904 1.69164
rclavicle -1.50579e-014 4.77083e-015
rhumerus -38.0087 -9.20716 -81.8452
rradius 29.5272
rwrist 8.46938
rhand -18.473 -7.83316
rfingers 7.12502
rthumb 7.81386 -37.6688
lclavicle -1.50579e-014 4.77083e-015
lhumerus -36.8058 5.16971 86.6909
lradius 35.5314
lwrist -7.75307
lhand -14.9398 8.06846
lfingers 7.12502
lthumb 11.2228 37.7483
rfemur -17.2759 1.19947 21.3819
rtibia 33.8419
rfoot -19.2769 -16.051
rtoes -10.8958
lfemur -20.5626 -4.16498 -23.8778
ltibia 38.6952
lfoot -22.3584 -7.04499
ltoes 11.7849
220
root 0.797727 17.8284 -15.5251 -170.624 -6.27082 -182.126
lowerback 3.12819 -0.427962 -4.23988
upperback -3.89836 -0.844888 1.48736
thorax -5.73451 -0.24403 4.00472
lowerneck -15.5614 -1.92207 -2.71596
upperneck 10.0675 -2.67738 4.66975
head 5.68311 -1.06947 1.66698
rclavicle -1.36416e-014 6.75868e-015
rhumerus -38.0834 -9.16413 -81.7648
rradius 29.6267
rwrist 8.38213
rhand -18.5044 -7.87596
rfingers 7.12502
rthumb 7.78351 -37.7127
lclavicle -1.36416e-014 6.75868e-015
lhumerus -36.6781 4.86324 86.9399
lradius 36.0208
lwrist -7.49609
lhand -15.0153 8.11542
lfingers 7.12502
lthumb 11.15 37.7992
rfemur -17.294 1.18581 21.3363
rtibia 33.8494
rfoot -19.4016 -15.982
rtoes -11.1822
lfemur -20.5625 -4.21648 -23.9115
ltibia 38.673
lfoot -22.48 -6.94176
ltoes 11.7702
221
root 0.802697 17.824 -15.5459 -170.525 -6.2191 -182.173
lowerback 3.14962 -0.448024 -4.25063
upperback -3.90646 -0.873386 1.49279
thorax -5.75239 -0.257044 4.01925
lowerneck -15.5759 -1.90837 -2.69211
upperneck 10.0893 -2.65401 4.60211
head 5.69009 -1.0614 1.64387
rclavicle -9.81499e-015 1.43125e-014
rhumerus -38.1419 -9.11492 -81.693
rradius 29.7291
rwrist 8.28872
rhand -18.5329 -7.9191
rfingers 7.12502
rthumb 7.756 -37.7568
lclavicle -9.81499e-015 1.43125e-014
lhumerus -36.5597 4.56221 87.1814
lradius 36.5125
lwrist -7.25444
lhand -15.0978 8.14752
lfingers 7.12502
lthumb 11.0704 37.8356
rfemur -17.318 1.16295 21.2942
rtibia 33.8563
rfoot -19.5263 -15.9011
rtoes -11.4822
lfemur -20.5701 -4.27772 -23.9419
ltibia 38.6537
lfoot -22.6035 -6.82038
ltoes 11.7517
222
root 0.807629 17.8195 -15.5666 -170.425 -6.16753 -182.207
lowerback 3.17308 -0.471253 -4.24411
upperback -3.91348 -0.905024 1.50033
thorax -5.77003 -0.272316 4.02651
lowerneck -15.5957 -1.89431 -2.66841
upperneck 10.1105 -2.6305 4.53759
head 5.69782 -1.05302 1.62175
rclavicle 7.95139e-016 -9.14409e-015
rhumerus -38.1807 -9.05793 -81.6317
rradius 29.8316
rwrist 8.18717
rhand -18.5535 -7.97044
rfingers 7.12502
rthumb 7.73611 -37.8089
lclavicle 7.95139e-016 -9.14409e-015
lhumerus -36.4496 4.26376 87.4158
lradius 37.0048
lwrist -7.01817
lhand -15.1866 8.16499
lfingers 7.12502
lthumb 10.9847 37.8576
rfemur -17.3439 1.1245 21.2654
rtibia 33.8619
rfoot -19.6503 -15.8044
rtoes -11.7811
lfemur -20.5824 -4.34744 -23.9597
ltibia 38.6388
lfoot -22.7302 -6.6825
ltoes 11.7281
223
root 0.812482 17.815 -15.5873 -170.324 -6.11367 -182.228
lowerback 3.19571 -0.496488 -4.22
upperback -3.92078 -0.938191 1.51108
thorax -5.78743 -0.289069 4.02733
lowerneck -15.6075 -1.88047 -2.64012
upperneck 10.1253 -2.60772 4.46967
head 5.70216 -1.04524 1.59778
rclavicle 8.19987e-016 1.74931e-014
rhumerus -38.2095 -8.99817 -81.5755
rradius 29.9377
rwrist 8.08352
rhand -18.5736 -8.02389
rfingers 7.12502
rthumb 7.71669 -37.8631
lclavicle 8.19987e-016 1.74931e-014
lhumerus -36.354 3.96737 87.6456
lradius 37.4998
lwrist -6.7854
lhand -15.2825 8.16885
lfingers 7.12502
lthumb 10.8922 37.8664
rfemur -17.3718 1.08086 21.2509
rtibia 33.8655
rfoot -19.771 -15.7002
rtoes -12.0679
lfemur -20.5995 -4.42394 -23.9641
ltibia 38.629
lfoot -22.8606 -6.52745
ltoes 11.6922
